<svg width="344" height="56" viewBox="0 0 344 56" fill="none" xmlns="http://www.w3.org/2000/svg">
<g filter="url(#filter0_b_1_25)">
<rect width="344" height="56" rx="28" fill="white" fill-opacity="0.15"/>
<path opacity="0.8" d="M25.5455 33.716C24.3935 33.716 23.4035 33.446 22.5755 32.906C21.7595 32.354 21.1895 31.598 20.8655 30.638L21.9455 30.008C22.1735 30.788 22.5935 31.4 23.2055 31.844C23.8175 32.276 24.6035 32.492 25.5635 32.492C26.4995 32.492 27.2255 32.288 27.7415 31.88C28.2695 31.46 28.5335 30.908 28.5335 30.224C28.5335 29.564 28.2935 29.066 27.8135 28.73C27.3335 28.394 26.5415 28.046 25.4375 27.686C24.1295 27.254 23.2655 26.906 22.8455 26.642C21.8855 26.066 21.4055 25.232 21.4055 24.14C21.4055 23.072 21.7775 22.232 22.5215 21.62C23.2655 20.996 24.1835 20.684 25.2755 20.684C26.2595 20.684 27.1115 20.942 27.8315 21.458C28.5515 21.962 29.0855 22.61 29.4335 23.402L28.3715 23.996C27.7955 22.604 26.7635 21.908 25.2755 21.908C24.4955 21.908 23.8655 22.1 23.3855 22.484C22.9055 22.868 22.6655 23.402 22.6655 24.086C22.6655 24.71 22.8815 25.178 23.3135 25.49C23.7455 25.802 24.4595 26.12 25.4555 26.444C25.9115 26.6 26.2355 26.714 26.4275 26.786C26.6315 26.846 26.9195 26.954 27.2915 27.11C27.6755 27.254 27.9575 27.386 28.1375 27.506C28.3175 27.614 28.5335 27.77 28.7855 27.974C29.0495 28.166 29.2355 28.364 29.3435 28.568C29.4635 28.76 29.5655 29 29.6495 29.288C29.7455 29.564 29.7935 29.864 29.7935 30.188C29.7935 31.256 29.4035 32.114 28.6235 32.762C27.8435 33.398 26.8175 33.716 25.5455 33.716ZM36.1104 24.284C37.4424 24.284 38.5164 24.758 39.3324 25.706C40.1604 26.642 40.5744 27.752 40.5744 29.036C40.5744 29.168 40.5624 29.354 40.5384 29.594H32.6364C32.7564 30.506 33.1404 31.232 33.7884 31.772C34.4484 32.3 35.2584 32.564 36.2184 32.564C36.9024 32.564 37.4904 32.426 37.9824 32.15C38.4864 31.862 38.8644 31.49 39.1164 31.034L40.1604 31.646C39.7644 32.282 39.2244 32.786 38.5404 33.158C37.8564 33.53 37.0764 33.716 36.2004 33.716C34.7844 33.716 33.6324 33.272 32.7444 32.384C31.8564 31.496 31.4124 30.368 31.4124 29C31.4124 27.656 31.8504 26.534 32.7264 25.634C33.6024 24.734 34.7304 24.284 36.1104 24.284ZM36.1104 25.436C35.1744 25.436 34.3884 25.718 33.7524 26.282C33.1284 26.834 32.7564 27.554 32.6364 28.442H39.3504C39.2304 27.494 38.8644 26.756 38.2524 26.228C37.6404 25.7 36.9264 25.436 36.1104 25.436ZM50.2041 24.5H51.3921V33.5H50.2041V31.736C49.3761 33.056 48.1641 33.716 46.5681 33.716C45.2841 33.716 44.1861 33.26 43.2741 32.348C42.3741 31.436 41.9241 30.32 41.9241 29C41.9241 27.68 42.3741 26.564 43.2741 25.652C44.1861 24.74 45.2841 24.284 46.5681 24.284C48.1641 24.284 49.3761 24.944 50.2041 26.264V24.5ZM44.1381 31.538C44.8221 32.222 45.6621 32.564 46.6581 32.564C47.6541 32.564 48.4941 32.222 49.1781 31.538C49.8621 30.842 50.2041 29.996 50.2041 29C50.2041 28.004 49.8621 27.164 49.1781 26.48C48.4941 25.784 47.6541 25.436 46.6581 25.436C45.6621 25.436 44.8221 25.784 44.1381 26.48C43.4541 27.164 43.1121 28.004 43.1121 29C43.1121 29.996 43.4541 30.842 44.1381 31.538ZM55.0955 25.994C55.6475 24.902 56.5955 24.356 57.9395 24.356V25.508C57.1235 25.508 56.4455 25.748 55.9055 26.228C55.3655 26.708 55.0955 27.464 55.0955 28.496V33.5H53.9075V24.5H55.0955V25.994ZM63.2167 33.716C61.8607 33.716 60.7327 33.266 59.8327 32.366C58.9327 31.454 58.4827 30.332 58.4827 29C58.4827 27.668 58.9327 26.552 59.8327 25.652C60.7327 24.74 61.8607 24.284 63.2167 24.284C64.1047 24.284 64.9027 24.5 65.6107 24.932C66.3187 25.352 66.8347 25.922 67.1587 26.642L66.1867 27.2C65.9467 26.66 65.5567 26.234 65.0167 25.922C64.4887 25.598 63.8887 25.436 63.2167 25.436C62.2207 25.436 61.3807 25.784 60.6967 26.48C60.0127 27.164 59.6707 28.004 59.6707 29C59.6707 29.996 60.0127 30.842 60.6967 31.538C61.3807 32.222 62.2207 32.564 63.2167 32.564C63.8887 32.564 64.4887 32.408 65.0167 32.096C65.5447 31.772 65.9587 31.34 66.2587 30.8L67.2487 31.376C66.8767 32.096 66.3307 32.666 65.6107 33.086C64.8907 33.506 64.0927 33.716 63.2167 33.716ZM73.1663 24.284C74.2583 24.284 75.1163 24.62 75.7403 25.292C76.3763 25.952 76.6943 26.846 76.6943 27.974V33.5H75.5063V27.974C75.5063 27.17 75.2903 26.546 74.8583 26.102C74.4383 25.658 73.8383 25.436 73.0583 25.436C72.1943 25.436 71.4923 25.712 70.9523 26.264C70.4123 26.804 70.1423 27.644 70.1423 28.784V33.5H68.9543V20.9H70.1423V25.904C70.8143 24.824 71.8223 24.284 73.1663 24.284ZM87.9914 21.836C87.1154 21.764 86.4614 21.914 86.0294 22.286C85.6094 22.658 85.3994 23.276 85.3994 24.14V24.5H87.9914V25.652H85.3994V33.5H84.2114V25.652H82.6814V24.5H84.2114V24.14C84.2114 22.964 84.5354 22.076 85.1834 21.476C85.8434 20.864 86.7794 20.6 87.9914 20.684V21.836ZM95.5931 24.5H96.7811V33.5H95.5931V32.096C94.9211 33.176 93.9131 33.716 92.5691 33.716C91.4771 33.716 90.6131 33.386 89.9771 32.726C89.3531 32.054 89.0411 31.154 89.0411 30.026V24.5H90.2291V30.026C90.2291 30.83 90.4391 31.454 90.8591 31.898C91.2911 32.342 91.8971 32.564 92.6771 32.564C93.5411 32.564 94.2431 32.294 94.7831 31.754C95.3231 31.202 95.5931 30.356 95.5931 29.216V24.5ZM100.482 25.994C101.034 24.902 101.982 24.356 103.326 24.356V25.508C102.51 25.508 101.832 25.748 101.292 26.228C100.752 26.708 100.482 27.464 100.482 28.496V33.5H99.2942V24.5H100.482V25.994ZM109.166 24.284C110.258 24.284 111.116 24.62 111.74 25.292C112.376 25.952 112.694 26.846 112.694 27.974V33.5H111.506V27.974C111.506 27.17 111.29 26.546 110.858 26.102C110.438 25.658 109.838 25.436 109.058 25.436C108.194 25.436 107.492 25.712 106.952 26.264C106.412 26.804 106.142 27.644 106.142 28.784V33.5H104.954V24.5H106.142V25.904C106.814 24.824 107.822 24.284 109.166 24.284ZM116.197 22.34C116.029 22.508 115.825 22.592 115.585 22.592C115.345 22.592 115.141 22.508 114.973 22.34C114.805 22.172 114.721 21.968 114.721 21.728C114.721 21.488 114.805 21.284 114.973 21.116C115.141 20.948 115.345 20.864 115.585 20.864C115.825 20.864 116.029 20.948 116.197 21.116C116.365 21.284 116.449 21.488 116.449 21.728C116.449 21.968 116.365 22.172 116.197 22.34ZM114.991 33.5V24.5H116.179V33.5H114.991ZM123.47 25.652H120.878V31.106C120.878 31.598 120.974 31.952 121.166 32.168C121.358 32.372 121.646 32.48 122.03 32.492C122.414 32.492 122.894 32.48 123.47 32.456V33.5C122.21 33.692 121.262 33.602 120.626 33.23C120.002 32.858 119.69 32.15 119.69 31.106V25.652H117.8V24.5H119.69V22.34L120.878 21.98V24.5H123.47V25.652ZM131.786 24.5H132.974V33.5H131.786V32.096C131.114 33.176 130.106 33.716 128.762 33.716C127.67 33.716 126.806 33.386 126.17 32.726C125.546 32.054 125.234 31.154 125.234 30.026V24.5H126.422V30.026C126.422 30.83 126.632 31.454 127.052 31.898C127.484 32.342 128.09 32.564 128.87 32.564C129.734 32.564 130.436 32.294 130.976 31.754C131.516 31.202 131.786 30.356 131.786 29.216V24.5ZM136.676 25.994C137.228 24.902 138.176 24.356 139.52 24.356V25.508C138.704 25.508 138.026 25.748 137.486 26.228C136.946 26.708 136.676 27.464 136.676 28.496V33.5H135.488V24.5H136.676V25.994ZM144.761 24.284C146.093 24.284 147.167 24.758 147.983 25.706C148.811 26.642 149.225 27.752 149.225 29.036C149.225 29.168 149.213 29.354 149.189 29.594H141.287C141.407 30.506 141.791 31.232 142.439 31.772C143.099 32.3 143.909 32.564 144.869 32.564C145.553 32.564 146.141 32.426 146.633 32.15C147.137 31.862 147.515 31.49 147.767 31.034L148.811 31.646C148.415 32.282 147.875 32.786 147.191 33.158C146.507 33.53 145.727 33.716 144.851 33.716C143.435 33.716 142.283 33.272 141.395 32.384C140.507 31.496 140.063 30.368 140.063 29C140.063 27.656 140.501 26.534 141.377 25.634C142.253 24.734 143.381 24.284 144.761 24.284ZM144.761 25.436C143.825 25.436 143.039 25.718 142.403 26.282C141.779 26.834 141.407 27.554 141.287 28.442H148.001C147.881 27.494 147.515 26.756 146.903 26.228C146.291 25.7 145.577 25.436 144.761 25.436Z" fill="white"/>
<rect x="296" y="8" width="40" height="40" rx="20" fill="#E58411"/>
<path d="M322.75 34.75L319.385 31.3795M321.25 26.875C321.25 28.5658 320.578 30.1873 319.383 31.3828C318.187 32.5784 316.566 33.25 314.875 33.25C313.184 33.25 311.563 32.5784 310.367 31.3828C309.172 30.1873 308.5 28.5658 308.5 26.875C308.5 25.1842 309.172 23.5627 310.367 22.3672C311.563 21.1716 313.184 20.5 314.875 20.5C316.566 20.5 318.187 21.1716 319.383 22.3672C320.578 23.5627 321.25 25.1842 321.25 26.875Z" stroke="white" stroke-width="2" stroke-linecap="round"/>
<rect x="0.430769" y="0.430769" width="343.138" height="55.1385" rx="27.5692" stroke="white" stroke-opacity="0.6" stroke-width="0.861538"/>
</g>
<defs>
<filter id="filter0_b_1_25" x="-8" y="-8" width="360" height="72" filterUnits="userSpaceOnUse" color-interpolation-filters="sRGB">
<feFlood flood-opacity="0" result="BackgroundImageFix"/>
<feGaussianBlur in="BackgroundImageFix" stdDeviation="4"/>
<feComposite in2="SourceAlpha" operator="in" result="effect1_backgroundBlur_1_25"/>
<feBlend mode="normal" in="SourceGraphic" in2="effect1_backgroundBlur_1_25" result="shape"/>
</filter>
</defs>
</svg>
