<svg width="49" height="50" viewBox="0 0 49 50" fill="none" xmlns="http://www.w3.org/2000/svg">
<rect x="0.191406" y="0.838867" width="48.743" height="48.743" rx="24.3715" fill="#0D1B39"/>
<path d="M34.3126 25.2103C34.3126 24.4411 33.6891 23.8176 32.92 23.8176H25.9567V16.8543C25.9567 16.0852 25.3332 15.4617 24.564 15.4617C23.7949 15.4617 23.1714 16.0852 23.1714 16.8543V23.8176H16.2081C15.4389 23.8176 14.8154 24.4411 14.8154 25.2103C14.8154 25.9794 15.4389 26.6029 16.2081 26.6029H23.1714V33.5662C23.1714 34.3354 23.7949 34.9589 24.564 34.9589C25.3332 34.9589 25.9567 34.3354 25.9567 33.5662V26.6029H32.92C33.6891 26.6029 34.3126 25.9794 34.3126 25.2103Z" fill="white"/>
</svg>
