<svg width="105" height="19" viewBox="0 0 105 19" fill="none" xmlns="http://www.w3.org/2000/svg">
<path d="M14.2295 10.9081C14.0322 11.0992 13.9416 11.3757 13.9865 11.6468L14.6636 15.394C14.7207 15.7116 14.5867 16.033 14.3209 16.2165C14.0604 16.4069 13.7139 16.4298 13.4298 16.2775L10.0566 14.5181C9.93931 14.4557 9.80908 14.4222 9.6758 14.4184H9.4694C9.39781 14.429 9.32774 14.4519 9.26376 14.4869L5.88982 16.2546C5.72303 16.3384 5.53415 16.3681 5.34908 16.3384C4.8982 16.2531 4.59737 15.8236 4.67124 15.3704L5.34908 11.6232C5.39401 11.3498 5.30338 11.0718 5.10612 10.8776L2.35594 8.21195C2.12594 7.9888 2.04597 7.65369 2.15107 7.35132C2.25313 7.04972 2.5136 6.82962 2.82814 6.78011L6.61335 6.23098C6.90124 6.20128 7.1541 6.02611 7.28357 5.76716L8.9515 2.3475C8.99111 2.27134 9.04213 2.20127 9.10383 2.14186L9.17237 2.08855C9.20817 2.04895 9.24929 2.0162 9.29499 1.98954L9.37801 1.95907L9.50748 1.90576H9.82812C10.1145 1.93546 10.3666 2.10683 10.4983 2.36273L12.1884 5.76716C12.3102 6.01621 12.5471 6.1891 12.8205 6.23098L16.6057 6.78011C16.9256 6.82581 17.1929 7.04668 17.2988 7.35132C17.3985 7.65673 17.3125 7.99184 17.0779 8.21195L14.2295 10.9081Z" fill="#F6B76F"/>
<path d="M35.5527 10.9091C35.3555 11.1002 35.2648 11.3767 35.3098 11.6478L35.9868 15.395C36.044 15.7126 35.9099 16.034 35.6441 16.2175C35.3836 16.4079 35.0371 16.4308 34.753 16.2785L31.3798 14.5191C31.2626 14.4567 31.1323 14.4232 30.999 14.4193H30.7926C30.721 14.43 30.651 14.4529 30.587 14.4879L27.2131 16.2556C27.0463 16.3394 26.8574 16.3691 26.6723 16.3394C26.2214 16.2541 25.9206 15.8245 25.9945 15.3714L26.6723 11.6242C26.7173 11.3508 26.6266 11.0728 26.4294 10.8786L23.6792 8.21293C23.4492 7.98977 23.3692 7.65466 23.4743 7.3523C23.5764 7.0507 23.8368 6.83059 24.1514 6.78109L27.9366 6.23196C28.2245 6.20226 28.4773 6.02709 28.6068 5.76814L30.2747 2.34848C30.3143 2.27231 30.3654 2.20225 30.4271 2.14284L30.4956 2.08953C30.5314 2.04992 30.5725 2.01717 30.6182 1.99052L30.7012 1.96005L30.8307 1.90674H31.1514C31.4377 1.93644 31.6898 2.10781 31.8216 2.36371L33.5116 5.76814C33.6335 6.01719 33.8703 6.19007 34.1437 6.23196L37.9289 6.78109C38.2488 6.82678 38.5161 7.04765 38.622 7.3523C38.7218 7.65771 38.6357 7.99282 38.4011 8.21293L35.5527 10.9091Z" fill="#F6B76F"/>
<path d="M56.875 10.9091C56.6777 11.1002 56.5871 11.3767 56.632 11.6478L57.3091 15.395C57.3662 15.7126 57.2322 16.034 56.9664 16.2175C56.7059 16.4079 56.3594 16.4308 56.0753 16.2785L52.7021 14.5191C52.5848 14.4567 52.4546 14.4232 52.3213 14.4193H52.1149C52.0433 14.43 51.9732 14.4529 51.9093 14.4879L48.5353 16.2556C48.3685 16.3394 48.1797 16.3691 47.9946 16.3394C47.5437 16.2541 47.2429 15.8245 47.3168 15.3714L47.9946 11.6242C48.0395 11.3508 47.9489 11.0728 47.7516 10.8786L45.0015 8.21293C44.7714 7.98977 44.6915 7.65466 44.7966 7.3523C44.8986 7.0507 45.1591 6.83059 45.4737 6.78109L49.2589 6.23196C49.5468 6.20226 49.7996 6.02709 49.9291 5.76814L51.597 2.34848C51.6366 2.27231 51.6876 2.20225 51.7493 2.14284L51.8179 2.08953C51.8537 2.04992 51.8948 2.01717 51.9405 1.99052L52.0235 1.96005L52.153 1.90674H52.4736C52.76 1.93644 53.0121 2.10781 53.1438 2.36371L54.8339 5.76814C54.9557 6.01719 55.1926 6.19007 55.466 6.23196L59.2512 6.78109C59.5711 6.82678 59.8384 7.04765 59.9443 7.3523C60.044 7.65771 59.958 7.99282 59.7234 8.21293L56.875 10.9091Z" fill="#F6B76F"/>
<path d="M78.203 10.9091C78.0058 11.1002 77.9151 11.3767 77.9601 11.6478L78.6371 15.395C78.6943 15.7126 78.5602 16.034 78.2944 16.2175C78.0339 16.4079 77.6874 16.4308 77.4033 16.2785L74.0302 14.5191C73.9129 14.4567 73.7827 14.4232 73.6494 14.4193H73.443C73.3714 14.43 73.3013 14.4529 73.2373 14.4879L69.8634 16.2556C69.6966 16.3394 69.5078 16.3691 69.3227 16.3394C68.8718 16.2541 68.571 15.8245 68.6449 15.3714L69.3227 11.6242C69.3676 11.3508 69.277 11.0728 69.0797 10.8786L66.3296 8.21293C66.0996 7.98977 66.0196 7.65466 66.1247 7.3523C66.2268 7.0507 66.4872 6.83059 66.8018 6.78109L70.587 6.23196C70.8748 6.20226 71.1277 6.02709 71.2572 5.76814L72.9251 2.34848C72.9647 2.27231 73.0157 2.20225 73.0774 2.14284L73.146 2.08953C73.1818 2.04992 73.2229 2.01717 73.2686 1.99052L73.3516 1.96005L73.4811 1.90674H73.8017C74.0881 1.93644 74.3402 2.10781 74.4719 2.36371L76.1619 5.76814C76.2838 6.01719 76.5206 6.19007 76.7941 6.23196L80.5792 6.78109C80.8991 6.82678 81.1664 7.04765 81.2723 7.3523C81.3721 7.65771 81.286 7.99282 81.0514 8.21293L78.203 10.9091Z" fill="#F6B76F"/>
<path d="M99.5312 10.9091C99.334 11.1002 99.2433 11.3767 99.2883 11.6478L99.9653 15.395C100.022 15.7126 99.8884 16.034 99.6226 16.2175C99.3622 16.4079 99.0156 16.4308 98.7315 16.2785L95.3584 14.5191C95.2411 14.4567 95.1108 14.4232 94.9776 14.4193H94.7712C94.6996 14.43 94.6295 14.4529 94.5655 14.4879L91.1916 16.2556C91.0248 16.3394 90.8359 16.3691 90.6508 16.3394C90.2 16.2541 89.8991 15.8245 89.973 15.3714L90.6508 11.6242C90.6958 11.3508 90.6051 11.0728 90.4079 10.8786L87.6577 8.21293C87.4277 7.98977 87.3477 7.65466 87.4528 7.3523C87.5549 7.0507 87.8154 6.83059 88.1299 6.78109L91.9151 6.23196C92.203 6.20226 92.4559 6.02709 92.5853 5.76814L94.2533 2.34848C94.2929 2.27231 94.3439 2.20225 94.4056 2.14284L94.4741 2.08953C94.5099 2.04992 94.5511 2.01717 94.5967 1.99052L94.6798 1.96005L94.8092 1.90674H95.1299C95.4162 1.93644 95.6683 2.10781 95.8001 2.36371L97.4901 5.76814C97.612 6.01719 97.8488 6.19007 98.1222 6.23196L101.907 6.78109C102.227 6.82678 102.495 7.04765 102.601 7.3523C102.7 7.65771 102.614 7.99282 102.38 8.21293L99.5312 10.9091Z" fill="#F6B76F"/>
</svg>
